<?xml version="1.0" encoding="UTF-8"?><svg id="Layer_1" xmlns="http://www.w3.org/2000/svg" xmlns:xlink="http://www.w3.org/1999/xlink" viewBox="0 0 512 512"><defs><style>.cls-1{fill:#191808;}.cls-1,.cls-2,.cls-3,.cls-4,.cls-5,.cls-6,.cls-7,.cls-8,.cls-9,.cls-10{stroke-width:0px;}.cls-2{fill:#19e0e0;}.cls-3{fill:#20ef4c;}.cls-4{fill:#ea0aa5;}.cls-5{fill:#c4801c;}.cls-6{fill:#0e41e2;}.cls-7{fill:#1f840d;}.cls-8{fill:#f995f4;}.cls-9{fill:#eab46c;}.cls-10{fill:#fff800;}</style><symbol id="Friendship" viewBox="0 0 74.57 74.57"><rect class="cls-4" y="0" width="74.57" height="74.57"/><path class="cls-8" d="m60.4,10.01c-6.16-4.42-14.59-5.59-23.2,8.25h0C28.58,4.38,20.15,5.56,13.99,9.98c-8.67,6.21-11.5,17.82-6.84,27.41,8.21,16.89,29.58,31.62,30.05,31.95v.03s21.76-14.87,30.06-31.95c4.66-9.59,1.82-21.2-6.84-27.41Z"/></symbol><symbol id="Metal" viewBox="0 0 73.87 73.87"><rect class="cls-5" y="0" width="73.87" height="73.87"/><rect class="cls-5" y="0" width="73.87" height="73.87"/><rect class="cls-9" x="10.97" y="10.82" width="52.23" height="52.23"/></symbol><symbol id="Plant" viewBox="0 0 74.62 74.62"><rect class="cls-7" y="0" width="74.62" height="74.62"/><polygon class="cls-3" points="54 8.36 20.62 8.36 3.93 37.26 20.62 66.17 54 66.17 70.68 37.26 54 8.36"/></symbol><symbol id="Star" viewBox="0 0 73.71 73.71"><rect class="cls-1" x="0" width="73.71" height="73.71"/><path class="cls-10" d="m43.57,8.74l2.69,8.28c.99,3.04,3.82,5.09,7.01,5.09h8.71c7.14,0,10.11,9.13,4.33,13.33l-7.04,5.12c-2.58,1.88-3.66,5.2-2.68,8.24l2.69,8.28c2.21,6.79-5.56,12.43-11.34,8.24l-7.04-5.12c-2.58-1.88-6.08-1.88-8.66,0l-7.04,5.12c-5.77,4.2-13.54-1.45-11.34-8.24l2.69-8.28c.99-3.04-.09-6.36-2.68-8.24l-7.04-5.12c-5.77-4.2-2.81-13.33,4.33-13.33h8.71c3.19,0,6.02-2.06,7.01-5.09l2.69-8.28c2.21-6.79,11.81-6.79,14.01,0Z"/></symbol><symbol id="Water" viewBox="0 0 73.69 73.69"><rect class="cls-6" y="0" width="73.69" height="73.69"/><circle class="cls-2" cx="36.77" cy="36.91" r="34.47"/></symbol></defs><use width="73.69" height="73.69" transform="translate(492.89 -38.37)" xlink:href="#Water"/><use width="73.69" height="73.69" transform="translate(446.87 -56.84)" xlink:href="#Water"/><use width="73.69" height="73.69" transform="translate(194.45 -48.7)" xlink:href="#Water"/><use width="73.69" height="73.69" transform="translate(110.5 -12.99)" xlink:href="#Water"/><use width="73.69" height="73.69" transform="translate(42.65 18.13)" xlink:href="#Water"/><use width="73.69" height="73.69" transform="translate(22.42 106.73)" xlink:href="#Water"/><use width="73.69" height="73.69" transform="translate(8.84 238.55)" xlink:href="#Water"/><use width="73.69" height="73.69" transform="translate(36.13 328.22)" xlink:href="#Water"/><use width="73.69" height="73.69" transform="translate(294.07 460.57)" xlink:href="#Water"/><use width="73.69" height="73.69" transform="translate(498.99 395.1)" xlink:href="#Water"/><use width="73.69" height="73.69" transform="translate(488.04 221.29)" xlink:href="#Water"/><use width="73.69" height="73.69" transform="translate(296.84 32.65)" xlink:href="#Water"/><use width="73.69" height="73.69" transform="translate(34.65 -41.49)" xlink:href="#Water"/><use width="73.69" height="73.69" transform="translate(-42.62 282.52)" xlink:href="#Water"/><use width="73.69" height="73.69" transform="translate(68.29 388.66)" xlink:href="#Water"/><use width="73.69" height="73.69" transform="translate(180.55 428.27)" xlink:href="#Water"/><use width="73.69" height="73.69" transform="translate(432.14 395.87)" xlink:href="#Water"/><use width="73.69" height="73.69" transform="translate(498.67 93.93)" xlink:href="#Water"/><use width="73.69" height="73.69" transform="translate(443.1 -.74)" xlink:href="#Water"/><use width="73.69" height="73.69" transform="translate(380.07 13.16)" xlink:href="#Water"/><use width="73.69" height="73.69" transform="translate(156.74 55.29)" xlink:href="#Water"/><use width="73.69" height="73.69" transform="translate(86.33 99.85)" xlink:href="#Water"/><use width="73.69" height="73.69" transform="translate(62.05 162.67)" xlink:href="#Water"/><use width="73.69" height="73.69" transform="translate(50 219.15)" xlink:href="#Water"/><use width="73.69" height="73.69" transform="translate(82.83 237.71)" xlink:href="#Water"/><use width="74.57" height="74.57" transform="translate(178.17 -9.03)" xlink:href="#Friendship"/><use width="74.57" height="74.57" transform="translate(88.31 -58.29)" xlink:href="#Friendship"/><use width="74.57" height="74.57" transform="translate(-53.32 -35.08)" xlink:href="#Friendship"/><use width="74.57" height="74.57" transform="translate(-74.13 330.84)" xlink:href="#Friendship"/><use width="74.57" height="74.57" transform="translate(90.8 439.97)" xlink:href="#Friendship"/><use width="74.57" height="74.57" transform="translate(316.57 504.17)" xlink:href="#Friendship"/><use width="74.57" height="74.57" transform="translate(384.47 481.69)" xlink:href="#Friendship"/><use width="74.57" height="74.57" transform="translate(452.86 418.76)" xlink:href="#Friendship"/><use width="74.57" height="74.57" transform="translate(510.98 324.31)" xlink:href="#Friendship"/><use width="74.57" height="74.57" transform="translate(508.32 145.66)" xlink:href="#Friendship"/><use width="74.57" height="74.57" transform="translate(467.76 33.23)" xlink:href="#Friendship"/><use width="74.57" height="74.57" transform="translate(398.15 -24.06)" xlink:href="#Friendship"/><use width="74.57" height="74.57" transform="translate(265.54 -12.73)" xlink:href="#Friendship"/><use width="74.57" height="74.57" transform="translate(190.04 32.28)" xlink:href="#Friendship"/><use width="74.57" height="74.57" transform="translate(170.67 244.47)" xlink:href="#Friendship"/><use width="74.57" height="74.57" transform="translate(159.57 338.32)" xlink:href="#Friendship"/><use width="74.57" height="74.57" transform="translate(185.45 376)" xlink:href="#Friendship"/><use width="74.57" height="74.57" transform="translate(230.63 413.84)" xlink:href="#Friendship"/><use width="74.57" height="74.57" transform="translate(238.55 354.45)" xlink:href="#Friendship"/><use width="73.87" height="73.87" transform="translate(220.02 -29.95)" xlink:href="#Metal"/><use width="73.87" height="73.87" transform="translate(22.79 65.82)" xlink:href="#Metal"/><use width="73.87" height="73.87" transform="translate(-59.26 173.68)" xlink:href="#Metal"/><use width="73.87" height="73.87" transform="translate(-26.45 318.95)" xlink:href="#Metal"/><use width="73.87" height="73.87" transform="translate(101.88 400.55)" xlink:href="#Metal"/><use width="73.87" height="73.87" transform="translate(272.42 426.31)" xlink:href="#Metal"/><use width="73.87" height="73.87" transform="translate(383.33 413.16)" xlink:href="#Metal"/><use width="73.87" height="73.87" transform="translate(446.78 338.34)" xlink:href="#Metal"/><use width="73.87" height="73.87" transform="translate(440.83 163.95)" xlink:href="#Metal"/><use width="73.87" height="73.87" transform="translate(251.51 -73.83)" xlink:href="#Metal"/><use width="73.87" height="73.87" transform="translate(153.78 -46.87)" xlink:href="#Metal"/><use width="73.87" height="73.87" transform="translate(69.99 32.21)" xlink:href="#Metal"/><use width="73.87" height="73.87" transform="translate(23.78 174.79)" xlink:href="#Metal"/><use width="73.87" height="73.87" transform="translate(48.22 279.81)" xlink:href="#Metal"/><use width="73.71" height="73.71" transform="translate(330.78 -41.28)" xlink:href="#Star"/><use width="73.71" height="73.71" transform="translate(377.03 117.92)" xlink:href="#Star"/><use width="73.71" height="73.71" transform="translate(414.74 344.21)" xlink:href="#Star"/><use width="73.71" height="73.71" transform="translate(346.32 436.7)" xlink:href="#Star"/><use width="73.71" height="73.71" transform="translate(90.44 481.38)" xlink:href="#Star"/><use width="73.71" height="73.71" transform="translate(-53.08 368.57)" xlink:href="#Star"/><use width="73.71" height="73.71" transform="translate(-17.27 188.72)" xlink:href="#Star"/><use width="73.71" height="73.71" transform="translate(133.52 120.82)" xlink:href="#Star"/><use width="73.71" height="73.71" transform="translate(-2.98 -24.38)" xlink:href="#Star"/><use width="73.71" height="73.71" transform="translate(-33.24 121.95)" xlink:href="#Star"/><use width="74.62" height="74.62" transform="translate(357.49 -11.07)" xlink:href="#Plant"/><use width="74.62" height="74.62" transform="translate(264.4 128.82)" xlink:href="#Plant"/><use width="74.62" height="74.62" transform="translate(263.92 381.85)" xlink:href="#Plant"/><use width="74.62" height="74.62" transform="translate(214.71 450.61)" xlink:href="#Plant"/><use width="74.62" height="74.62" transform="translate(-.53 408.72)" xlink:href="#Plant"/><use width="74.62" height="74.62" transform="translate(-19.3 72.28)" xlink:href="#Plant"/><use width="74.62" height="74.62" transform="translate(220.16 28.16)" xlink:href="#Plant"/><use width="74.62" height="74.62" transform="translate(432.83 40.07)" xlink:href="#Plant"/><use width="74.62" height="74.62" transform="translate(453.04 77.89)" xlink:href="#Plant"/><use width="74.62" height="74.62" transform="translate(473.2 187.31)" xlink:href="#Plant"/><use width="74.62" height="74.62" transform="translate(418.29 267.35)" xlink:href="#Plant"/><use width="74.62" height="74.62" transform="translate(359.59 302.17)" xlink:href="#Plant"/><use width="74.62" height="74.62" transform="translate(360.27 268.92)" xlink:href="#Plant"/><use width="74.62" height="74.62" transform="translate(330.6 289.13)" xlink:href="#Plant"/><use width="74.62" height="74.62" transform="translate(298.29 231.12)" xlink:href="#Plant"/><use width="74.62" height="74.62" transform="translate(314.98 197.09)" xlink:href="#Plant"/><use width="73.69" height="73.69" transform="translate(300.49 88.08)" xlink:href="#Water"/><use width="73.69" height="73.69" transform="translate(273.15 297.84)" xlink:href="#Water"/><use width="73.69" height="73.69" transform="translate(328.6 357.95)" xlink:href="#Water"/><use width="73.69" height="73.69" transform="translate(458.64 250.45)" xlink:href="#Water"/><use width="74.57" height="74.57" transform="translate(374.71 211.82)" xlink:href="#Friendship"/><use width="74.57" height="74.57" transform="translate(268.97 228.47)" xlink:href="#Friendship"/><use width="74.57" height="74.57" transform="translate(204.49 200.43)" xlink:href="#Friendship"/><use width="74.57" height="74.57" transform="translate(196.51 155.79)" xlink:href="#Friendship"/><use width="73.87" height="73.87" transform="translate(342.34 161.38)" xlink:href="#Metal"/><use width="73.87" height="73.87" transform="translate(253.04 184.81)" xlink:href="#Metal"/><use width="73.87" height="73.87" transform="translate(151.46 223.17)" xlink:href="#Metal"/><use width="73.87" height="73.87" transform="translate(102.4 300.92)" xlink:href="#Metal"/><use width="73.71" height="73.71" transform="translate(376.48 68.64)" xlink:href="#Star"/><use width="73.71" height="73.71" transform="translate(295.45 148.78)" xlink:href="#Star"/><use width="73.71" height="73.71" transform="translate(202.44 297.42)" xlink:href="#Star"/><use width="73.71" height="73.71" transform="translate(131.01 283.03)" xlink:href="#Star"/><use width="74.62" height="74.62" transform="translate(181.4 98.64)" xlink:href="#Plant"/><use width="74.62" height="74.62" transform="translate(75.65 186.7)" xlink:href="#Plant"/><use width="74.62" height="74.62" transform="translate(421.25 472.02)" xlink:href="#Plant"/><use width="74.62" height="74.62" transform="translate(266.62 508.1)" xlink:href="#Plant"/><use width="74.57" height="74.57" transform="translate(-10.88 487.93)" xlink:href="#Friendship"/></svg>