<?xml version="1.0" encoding="UTF-8"?><svg id="Layer_1" xmlns="http://www.w3.org/2000/svg" viewBox="0 0 512 512"><defs><style>.cls-1{fill:#191808;}.cls-2{fill:#fff800;}</style></defs><rect class="cls-1" width="512" height="512"/><path class="cls-2" d="m302.68,60.71l18.69,57.53c6.85,21.09,26.5,35.37,48.68,35.37h60.49c49.58,0,70.2,63.45,30.08,92.59l-48.94,35.55c-17.94,13.03-25.45,36.14-18.59,57.22l18.69,57.53c15.32,47.16-38.65,86.37-78.76,57.22l-48.94-35.55c-17.94-13.03-42.23-13.03-60.17,0l-48.94,35.55c-40.11,29.14-94.08-10.07-78.76-57.22l18.69-57.53c6.85-21.09-.65-44.19-18.59-57.22l-48.94-35.55c-40.11-29.14-19.5-92.59,30.08-92.59h60.49c22.17,0,41.83-14.28,48.68-35.37l18.69-57.53c15.32-47.16,82.03-47.16,97.36,0Z"/></svg>