<?xml version="1.0" encoding="UTF-8"?><svg id="Layer_1" xmlns="http://www.w3.org/2000/svg" viewBox="0 0 62.72 63.72"><defs><style>.cls-1{fill:#42ade2;stroke-width:0px;}</style></defs><path class="cls-1" d="m16.45,43.6l-4.17,1.79,2.18-6.86c.04-.11.03-.23-.02-.34l-.94-2.2c-.11-.25-.39-.36-.64-.25l-8,3.43c-.25.11-.36.39-.25.64l.92,2.15c.11.25.39.36.64.25l3.7-1.59-2.18,7.05c-.03.11-.03.23.02.33l.88,2.06c.11.25.39.36.64.25l8.53-3.66c.25-.11.36-.39.26-.64l-.93-2.17c-.11-.24-.39-.36-.64-.25Z"/><path class="cls-1" d="m33.81,34.63l-5.67,1.33,4.3-8.2c.07-.13.09-.29.05-.43l-.7-3c-.08-.33-.41-.54-.75-.47l-10.89,2.56c-.34.08-.54.41-.46.75l.69,2.93c.08.34.41.54.75.46l5.04-1.18-4.33,8.44c-.07.13-.09.28-.05.43l.66,2.81c.08.34.41.54.75.46l11.62-2.72c.34-.08.54-.41.46-.75l-.69-2.96c-.08-.34-.41-.54-.75-.46Z"/><path class="cls-1" d="m55.01,27.38l-6.47.36,6.28-8.15c.1-.13.15-.29.14-.46l-.19-3.41c-.02-.38-.35-.67-.73-.65l-12.42.7c-.38.02-.68.35-.65.73l.19,3.34c.02.38.35.67.73.65l5.74-.32-6.37,8.4c-.1.13-.15.29-.14.46l.18,3.2c.02.38.35.67.73.65l13.24-.74c.38-.02.67-.35.65-.73l-.19-3.37c-.02-.38-.35-.67-.73-.65Z"/></svg>