<?xml version="1.0" encoding="UTF-8"?><svg id="Layer_1" xmlns="http://www.w3.org/2000/svg" viewBox="0 0 512 512"><defs><style>.cls-1{fill:#191808;}.cls-1,.cls-2,.cls-3,.cls-4,.cls-5,.cls-6,.cls-7,.cls-8,.cls-9,.cls-10{stroke-width:0px;}.cls-2{fill:#19e0e0;}.cls-3{fill:#20ef4c;}.cls-4{fill:#ea0aa5;}.cls-5{fill:#c4801c;}.cls-6{fill:#0e41e2;}.cls-7{fill:#1f840d;}.cls-8{fill:#f995f4;}.cls-9{fill:#eab46c;}.cls-10{fill:#fff800;}</style></defs><rect class="cls-1" x="288.48" y="275.36" width="197.83" height="197.83"/><path class="cls-10" d="m369.36,298.82l-7.22,22.23c-2.65,8.15-10.24,13.67-18.81,13.67h-23.37c-19.16,0-27.12,24.52-11.62,35.78l18.91,13.74c6.93,5.04,9.83,13.96,7.18,22.11l-7.22,22.23c-5.92,18.22,14.93,33.37,30.43,22.11l18.91-13.74c6.93-5.04,16.32-5.04,23.25,0l18.91,13.74c15.5,11.26,36.35-3.89,30.43-22.11l-7.22-22.23c-2.65-8.15.25-17.07,7.18-22.11l18.91-13.74c15.5-11.26,7.53-35.78-11.62-35.78h-23.37c-8.57,0-16.16-5.52-18.81-13.67l-7.22-22.23c-5.92-18.22-31.7-18.22-37.62,0Z"/><rect class="cls-1" x="38.48" y="37.36" width="197.83" height="197.83"/><path class="cls-10" d="m119.36,60.82l-7.22,22.23c-2.65,8.15-10.24,13.67-18.81,13.67h-23.37c-19.16,0-27.12,24.52-11.62,35.78l18.91,13.74c6.93,5.04,9.83,13.96,7.18,22.11l-7.22,22.23c-5.92,18.22,14.93,33.37,30.43,22.11l18.91-13.74c6.93-5.04,16.32-5.04,23.25,0l18.91,13.74c15.5,11.26,36.35-3.89,30.43-22.11l-7.22-22.23c-2.65-8.15.25-17.07,7.18-22.11l18.91-13.74c15.5-11.26,7.53-35.78-11.62-35.78h-23.37c-8.57,0-16.16-5.52-18.81-13.67l-7.22-22.23c-5.92-18.22-31.7-18.22-37.62,0Z"/><rect class="cls-6" x="288.51" y="37.39" width="197.78" height="197.78" transform="translate(774.79 272.55) rotate(-180)"/><circle class="cls-2" cx="387.59" cy="136.47" r="92.53"/><rect class="cls-4" x="46.82" y="277.7" width="193.15" height="193.15"/><path class="cls-8" d="m83.51,303.62c15.96-11.44,37.79-14.49,60.1,21.36v-.04c22.32-35.89,44.16-32.84,60.13-21.4,22.44,16.09,29.79,46.16,17.72,71-21.25,43.76-76.61,81.91-77.83,82.75v.09s-56.36-38.52-77.85-82.77c-12.06-24.84-4.72-54.91,17.72-71Z"/><rect class="cls-5" x="42.26" y="275.14" width="198.28" height="198.28"/><rect class="cls-5" x="42.26" y="275.14" width="198.28" height="198.28"/><rect class="cls-9" x="70.91" y="304.18" width="140.19" height="140.19" transform="translate(282.01 748.55) rotate(-180)"/><rect class="cls-5" x="38.26" y="37.14" width="198.28" height="198.28"/><rect class="cls-5" x="38.26" y="37.14" width="198.28" height="198.28"/><rect class="cls-9" x="66.91" y="66.18" width="140.19" height="140.19" transform="translate(274.01 272.55) rotate(-180)"/><rect class="cls-6" x="288.51" y="274.39" width="197.78" height="197.78" transform="translate(774.79 746.55) rotate(-180)"/><circle class="cls-2" cx="387.59" cy="373.47" r="92.53"/><rect class="cls-7" x="40.17" y="275" width="200.28" height="200.28"/><polygon class="cls-3" points="185.1 297.45 95.52 297.45 50.73 375.02 95.52 452.6 185.1 452.6 229.89 375.02 185.1 297.45"/><rect class="cls-7" x="37.03" y="36.14" width="200.28" height="200.28"/><polygon class="cls-3" points="181.96 58.58 92.38 58.58 47.59 136.16 92.38 213.74 181.96 213.74 226.75 136.16 181.96 58.58"/><rect class="cls-7" x="287.03" y="36.14" width="200.28" height="200.28"/><polygon class="cls-3" points="431.96 58.58 342.38 58.58 297.59 136.16 342.38 213.74 431.96 213.74 476.75 136.16 431.96 58.58"/><rect class="cls-1" x="288.26" y="275.36" width="197.83" height="197.83"/><path class="cls-10" d="m405.21,298.82l7.22,22.23c2.65,8.15,10.24,13.67,18.81,13.67h23.37c19.16,0,27.12,24.52,11.62,35.78l-18.91,13.74c-6.93,5.04-9.83,13.96-7.18,22.11l7.22,22.23c5.92,18.22-14.93,33.37-30.43,22.11l-18.91-13.74c-6.93-5.04-16.32-5.04-23.25,0l-18.91,13.74c-15.5,11.26-36.35-3.89-30.43-22.11l7.22-22.23c2.65-8.15-.25-17.07-7.18-22.11l-18.91-13.74c-15.5-11.26-7.53-35.78,11.62-35.78h23.37c8.57,0,16.16-5.52,18.81-13.67l7.22-22.23c5.92-18.22,31.7-18.22,37.62,0Z"/></svg>