<?xml version="1.0" encoding="UTF-8"?><svg id="Layer_1" xmlns="http://www.w3.org/2000/svg" viewBox="0 0 512 512"><defs><style>.cls-1{fill:#191808;}.cls-1,.cls-2,.cls-3,.cls-4,.cls-5,.cls-6{stroke-width:0px;}.cls-2{fill:#19e0e0;}.cls-3{fill:#ea0aa5;}.cls-4{fill:#0e41e2;}.cls-5{fill:#f995f4;}.cls-6{fill:#fff800;}</style></defs><rect class="cls-1" x="38.26" y="275.36" width="197.83" height="197.83"/><path class="cls-6" d="m155.21,298.82l7.22,22.23c2.65,8.15,10.24,13.67,18.81,13.67h23.37c19.16,0,27.12,24.52,11.62,35.78l-18.91,13.74c-6.93,5.04-9.83,13.96-7.18,22.11l7.22,22.23c5.92,18.22-14.93,33.37-30.43,22.11l-18.91-13.74c-6.93-5.04-16.32-5.04-23.25,0l-18.91,13.74c-15.5,11.26-36.35-3.89-30.43-22.11l7.22-22.23c2.65-8.15-.25-17.07-7.18-22.11l-18.91-13.74c-15.5-11.26-7.53-35.78,11.62-35.78h23.37c8.57,0,16.16-5.52,18.81-13.67l7.22-22.23c5.92-18.22,31.7-18.22,37.62,0Z"/><rect class="cls-1" x="288.26" y="37.36" width="197.83" height="197.83"/><path class="cls-6" d="m405.21,60.82l7.22,22.23c2.65,8.15,10.24,13.67,18.81,13.67h23.37c19.16,0,27.12,24.52,11.62,35.78l-18.91,13.74c-6.93,5.04-9.83,13.96-7.18,22.11l7.22,22.23c5.92,18.22-14.93,33.37-30.43,22.11l-18.91-13.74c-6.93-5.04-16.32-5.04-23.25,0l-18.91,13.74c-15.5,11.26-36.35-3.89-30.43-22.11l7.22-22.23c2.65-8.15-.25-17.07-7.18-22.11l-18.91-13.74c-15.5-11.26-7.53-35.78,11.62-35.78h23.37c8.57,0,16.16-5.52,18.81-13.67l7.22-22.23c5.92-18.22,31.7-18.22,37.62,0Z"/><rect class="cls-4" x="38.28" y="37.39" width="197.78" height="197.78"/><circle class="cls-2" cx="136.98" cy="136.47" r="92.53"/><rect class="cls-3" x="284.6" y="277.7" width="193.15" height="193.15"/><path class="cls-5" d="m441.06,303.62c-15.96-11.44-37.79-14.49-60.1,21.36v-.04c-22.32-35.89-44.16-32.84-60.13-21.4-22.44,16.09-29.79,46.16-17.72,71,21.25,43.76,76.61,81.91,77.83,82.75v.09s56.36-38.52,77.85-82.77c12.06-24.84,4.72-54.91-17.72-71Z"/></svg>